# AST/ASF file generated using VICON BodyLanguage
# -----------------------------------------------
:version 1.10
:name VICON
:units
  mass 1.0
  length 0.45
  angle deg
:documentation
   .ast/.asf automatically generated from VICON data using
   VICON BodyBuilder and BodyLanguage model FoxedUp or BRILLIANT.MOD
:root
   order TX TY TZ RX RY RZ
   axis XYZ
   position 0 0 0  
   orientation 0 0 0 
:bonedata
  begin
     id 1 
     name lhipjoint
     direction 0.561145 -0.797705 0.220866 
     length 2.46425 
     axis 0 0 0  XYZ
  end
  begin
     id 2 
     name lfemur
     direction 0.34202 -0.939693 0  
     length 7.95556  
     axis 0 0 20  XYZ
    dof rx ry rz
    limits (-160.0 20.0)
           (-70.0 70.0)
           (-60.0 70.0)
  end
  begin
     id 3 
     name ltibia
     direction 0.34202 -0.939693 0   
     length 7.9832   
     axis 0 0 20   XYZ
    dof rx
    limits (-10.0 170.0)
  end
  begin
     id 4 
     name lfoot
     direction 0.0723927 -0.198897 0.977343   
     length 2.23085   
     axis -90 7.62852e-016 20   XYZ
    dof rx rz
    limits (-45.0 90.0)
           (-70.0 20.0)
  end
  begin
     id 5 
     name ltoes
     direction 1.53826e-011 -4.21988e-011 1   
     length 1.12127   
     axis -90 7.62852e-016 20   XYZ
    dof rx
    limits (-90.0 20.0)
  end
  begin
     id 6 
     name rhipjoint
     direction -0.610499 -0.763299 0.21134   
     length 2.57533  
     axis 0 0 0  XYZ 
  end
  begin
     id 7 
     name rfemur
     direction -0.34202 -0.939693 0   
     length 8.65257   
     axis 0 0 -20   XYZ
    dof rx ry rz
    limits (-160.0 20.0)
           (-70.0 70.0)
           (-70.0 60.0)
  end
  begin
     id 8 
     name rtibia
     direction -0.342021 -0.939692 0   
     length 7.37807   
     axis 0 0 -20   XYZ
    dof rx
    limits (-10.0 170.0)
 end
 begin
     id 9 
     name rfoot
     direction -0.0239304 -0.0543852 0.998233   
     length 1.87018  
     axis -90 -7.62852e-016 -20   XYZ
    dof rx rz
    limits (-45.0 90.0)
           (-20.0 70.0)
  end
  begin
     id 10 
     name rtoes
     direction -1.53584e-011 -4.2242e-011 1   
     length 0.951568   
     axis -90 -7.62852e-016 -20   XYZ
    dof rx
    limits (-90.0 20.0)
  end
  begin
     id 11 
     name lowerback
     direction 0.00322089 0.999033 0.0438587   
     length 2.07568   
     axis 0 0 0   XYZ
    dof rx ry rz
    limits (-20.0 45.0)
           (-30.0 30.0)
           (-30.0 30.0)
  end
  begin
     id 12 
     name upperback
     direction -0.00321932 0.999732 -0.0229403   
     length 2.06253   
     axis 0 0 0   XYZ
    dof rx ry rz
    limits (-20.0 45.0)
           (-30.0 30.0)
           (-30.0 30.0)
  end
  begin
     id 13 
     name thorax
     direction -0.00537537 0.998955 -0.0453918   
     length 2.06975   
     axis 0 0 0   XYZ
    dof rx ry rz
    limits (-20.0 45.0)
           (-30.0 30.0)
           (-30.0 30.0)
  end
  begin
     id 14 
     name lowerneck
     direction -0.00013604 0.994111 0.108363   
     length 1.50836   
     axis 0 0 0   XYZ
    dof rx ry rz
    limits (-20.0 45.0)
           (-30.0 30.0)
           (-30.0 30.0)
  end
  begin
     id 15 
     name upperneck
     direction 0.0397262 0.983859 -0.174482   
     length 1.53037   
     axis 0 0 0   XYZ
    dof rx ry rz
    limits (-20.0 45.0)
           (-30.0 30.0)
           (-30.0 30.0)
  end
  begin
     id 16
     name head
     direction 0.0109991 0.997082 -0.0755378  
     length 1.56928  
     axis 0 0 0   XYZ
    dof rx ry rz
    limits (-20.0 45.0)
           (-30.0 30.0)
           (-30.0 30.0)
  end
  begin
     id 17 
     name lclavicle
     direction 0.964749 0.254 -0.068874  
     length 3.26503  
     axis 0 0 0   XYZ
    dof ry rz
    limits (-20.0 10.0)
           (0.0 20.0)
  end
  begin
     id 18 
     name lhumerus
     direction 1 -4.48941e-011 -2.05079e-027   
     length 5.68236   
     axis 180 -30 -90   XYZ
    dof rx ry rz
    limits (-60.0 90.0)
           (-90.0 90.0)
           (-90.0 90.0)
  end
  begin
     id 19
     name lradius
     direction 1 -4.48956e-011 6.2882e-027   
     length 3.17112   
     axis 180 -30 -90   XYZ
    dof rx
    limits (-10.0 170.0)
  end
  begin
     id 20
     name lwrist
     direction 1 -4.49014e-011 1.73219e-026   
     length 1.58556   
     axis -1.04724e-014 90 90   XYZ
    dof ry
    limits (-180.0 0.0)
 end
  begin
     id 21 
     name lhand
     direction 1 -4.49312e-011 3.46438e-026   
     length 0.632691   
     axis -2.21057e-014 90 90   XYZ
    dof rx rz
    limits (-90.0 90.0)
           (-45.0 45.0)
  end
  begin
     id 22 
     name lfingers
     direction 1 -4.48894e-011 6.92876e-026   
     length 0.510091   
     axis -4.42114e-014 90 90   XYZ
    dof rx
    limits (0.0 90.0)
  end
  begin
     id 23
     name lthumb
     direction 0.707107 -6.34705e-011 0.707107   
     length 0.732392   
     axis -90 45 2.85299e-015   XYZ
    dof rx rz
    limits (-45.0 45.0)
           (-45.0 45.0)
  end
  begin
     id 24 
     name rclavicle
     direction -0.954374 0.280496 -0.102435   
     length 3.25419  
     axis 0 0 0   XYZ 
    dof ry rz
    limits (-10.0 20.0)
           (-20.0 0.0)
  end
  begin
     id 25 
     name rhumerus
     direction -1 -4.48994e-011 -1.07204e-017  
     length 5.8712   
     axis 180 30 90   XYZ
    dof rx ry rz
    limits (-90.0 60.0)
           (-90.0 90.0)
           (-90.0 90.0)
  end
  begin
     id 26 
     name rradius
     direction -1 -4.48972e-011 5.89292e-027   
     length 3.37589   
     axis 180 30 90   XYZ
    dof rx
    limits (-10.0 170.0)
  end
  begin
     id 27 
     name rwrist
     direction -1 -4.48942e-011 1.73219e-026   
     length 1.68794   
     axis -1.04724e-014 -90 -90   XYZ
    dof ry
    limits (-180.0 0.0)
  end
  begin
     id 28
     name rhand
     direction -1 -4.48514e-011 3.46438e-026   
     length 0.603257   
     axis -2.21057e-014 -90 -90   XYZ
    dof rx rz
    limits (-90.0 90.0)
           (-45.0 45.0)
  end
  begin
     id 29
     name rfingers
     direction -1 -4.50028e-011 6.92876e-026   
     length 0.486362   
     axis -4.42114e-014 -90 -90   XYZ
    dof rx
    limits (0.0 90.0)
  end
  begin
     id 30
     name rthumb
     direction -0.707107 -6.34926e-011 0.707107   
     length 0.698321   
     axis -90 -45 -2.85299e-015   XYZ
    dof rx rz
    limits (-45.0 45.0)
           (-45.0 45.0)
  end
:hierarchy
  begin
    root lhipjoint rhipjoint lowerback
    lhipjoint lfemur
    lfemur ltibia
    ltibia lfoot
    lfoot ltoes
    rhipjoint rfemur
    rfemur rtibia
    rtibia rfoot
    rfoot rtoes
    lowerback upperback
    upperback thorax
    thorax lowerneck lclavicle rclavicle
    lowerneck upperneck
    upperneck head
    lclavicle lhumerus
    lhumerus lradius
    lradius lwrist
    lwrist lhand lthumb
    lhand lfingers
    rclavicle rhumerus
    rhumerus rradius
    rradius rwrist
    rwrist rhand rthumb
    rhand rfingers
  end

#!OML:ASF I:\Segmentation\Patient Classification 1\Patient 1\Session 1\Patient1.ASF
:FULLY-SPECIFIED
:DEGREES
1798
root 20.6009 15.7212 -0.557766 -566.579 -91.1307 192.475
lowerback 14.1758 0.515933 -2.85481
upperback 13.3643 -0.532834 -0.58737
thorax 6.33321 -0.887352 0.97177
lowerneck 4.05418 -1.71844 3.22371
upperneck -5.96177 -2.15468 -0.701111
head -2.64174 -1.13259 -0.703942
rclavicle 2.78299e-015 -7.95139e-015
rhumerus 49.0751 -15.1559 -21.0839
rradius 110.138
rwrist -28.2344
rhand -14.7021 34.4914
rfingers 7.12502
rthumb 11.4521 4.82419
lclavicle 2.78299e-015 -7.95139e-015
lhumerus -11.2203 -9.57792 84.9166
lradius 47.949
lwrist 24.0183
lhand -18.4333 38.5246
lfingers 7.12502
lthumb 7.85216 68.3587
rfemur -34.9744 -5.96716 17.4711
rtibia 60.2859
rfoot -5.69124 2.58548
rtoes 48.149
lfemur -36.8112 13.8153 -17.8584
ltibia 63.4465
lfoot -12.6395 3.23845
ltoes -0.788942
1799
root 20.5975 15.7228 -0.556603 -567.754 -91.1288 193.686
lowerback 14.0685 0.573906 -2.82357
upperback 13.3797 -0.446077 -0.629856
thorax 6.40366 -0.839117 0.900623
lowerneck 3.98809 -1.66128 3.15394
upperneck -5.90164 -2.08286 -0.670911
head -2.60603 -1.09569 -0.685174
rclavicle -4.96962e-015 -1.27222e-014
rhumerus 49.2567 -15.023 -21.2388
rradius 110.064
rwrist -28.2028
rhand -14.7427 34.531
rfingers 7.12502
rthumb 11.4129 4.86161
lclavicle -4.96962e-015 -1.27222e-014
lhumerus -11.0941 -9.64611 84.9171
lradius 47.8851
lwrist 23.9315
lhand -18.4283 38.5723
lfingers 7.12502
lthumb 7.85692 68.4063
rfemur -35.0111 -5.96406 17.4433
rtibia 60.29
rfoot -5.67128 2.59106
rtoes 48.152
lfemur -36.8349 13.8466 -17.893
ltibia 63.4429
lfoot -12.642 3.19522
ltoes -0.704154
1800
root 20.5935 15.7245 -0.555503 -569.207 -91.1103 195.183
lowerback 13.9384 0.642139 -2.78525
upperback 13.4018 -0.344474 -0.671986
thorax 6.49373 -0.783214 0.824608
lowerneck 3.89432 -1.61501 3.08131
upperneck -5.83136 -2.02712 -0.646494
head -2.56233 -1.06654 -0.667321
rclavicle 1.98785e-015 -3.57812e-015
rhumerus 49.4307 -14.8982 -21.3822
rradius 109.992
rwrist -28.1647
rhand -14.752 34.5921
rfingers 7.12502
rthumb 11.404 4.9222
lclavicle 1.98785e-015 -3.57812e-015
lhumerus -10.9606 -9.74949 84.9138
lradius 47.8371
lwrist 23.8913
lhand -18.3958 38.5845
lfingers 7.12502
lthumb 7.8883 68.4174
rfemur -35.0554 -5.94438 17.4207
rtibia 60.2904
rfoot -5.65293 2.60036
rtoes 48.1601
lfemur -36.8612 13.8859 -17.9232
ltibia 63.4402
lfoot -12.6534 3.14987
ltoes -0.489794
1801
root 20.5898 15.7258 -0.554851 -570.023 -91.0887 196.048
lowerback 13.814 0.717083 -2.7282
upperback 13.4225 -0.232427 -0.713927
thorax 6.57896 -0.720321 0.738008
lowerneck 3.78157 -1.58794 3.02835
upperneck -5.74509 -1.99712 -0.634458
head -2.51096 -1.05015 -0.656037
rclavicle -3.97569e-016 1.59028e-015
rhumerus 49.5633 -14.79 -21.5068
rradius 109.941
rwrist -28.1355
rhand -14.7225 34.6324
rfingers 7.12502
rthumb 11.4324 4.96407
lclavicle -3.97569e-016 1.59028e-015
lhumerus -10.8272 -9.90891 84.8991
lradius 47.814
lwrist 23.9069
lhand -18.3464 38.5728
lfingers 7.12502
lthumb 7.93599 68.4039
rfemur -35.104 -5.92249 17.4155
rtibia 60.2887
rfoot -5.64252 2.61031
rtoes 48.1636
lfemur -36.8964 13.916 -17.9374
ltibia 63.4421
lfoot -12.6739 3.10676
ltoes -0.234163
1802
root 20.5869 15.7263 -0.554814 -569.519 -91.0771 195.591
lowerback 13.715 0.792886 -2.64969
upperback 13.438 -0.118322 -0.753993
thorax 6.64507 -0.65431 0.64196
lowerneck 3.66444 -1.5812 3.00454
upperneck -5.65231 -1.99354 -0.63851
head -2.45801 -1.04704 -0.654061
rclavicle -5.36719e-015 -7.95139e-016
rhumerus 49.6461 -14.6978 -21.6163
rradius 109.916
rwrist -28.1143
rhand -14.6665 34.6311
rfingers 7.12502
rthumb 11.4864 4.96575
lclavicle -5.36719e-015 -7.95139e-016
lhumerus -10.7002 -10.1176 84.8735
lradius 47.8217
lwrist 23.9586
lhand -18.2973 38.5752
lfingers 7.12502
lthumb 7.98343 68.4045
rfemur -35.1495 -5.9129 17.4321
rtibia 60.286
rfoot -5.64296 2.6165
rtoes 48.1465
lfemur -36.941 13.9248 -17.9308
ltibia 63.4504
lfoot -12.6982 3.06878
ltoes -0.0268175
1803
root 20.5849 15.7261 -0.555246 -567.435 -91.0821 193.55
lowerback 13.6427 0.864585 -2.55205
upperback 13.4509 -0.0094323 -0.787718
thorax 6.6946 -0.589448 0.542877
lowerneck 3.52406 -1.58461 2.97911
upperneck -5.54097 -2.00375 -0.632876
head -2.39485 -1.05094 -0.648401
rclavicle -1.98785e-016 -9.54166e-015
rhumerus 49.698 -14.6184 -21.7193
rradius 109.908
rwrist -28.0947
rhand -14.5902 34.5882
rfingers 7.12502
rthumb 11.56 4.927
lclavicle -1.98785e-016 -9.54166e-015
lhumerus -10.5798 -10.351 84.8456
lradius 47.8562
lwrist 24.0097
lhand -18.2656 38.6233
lfingers 7.12502
lthumb 8.01398 68.4513
rfemur -35.1867 -5.92385 17.4706
rtibia 60.283
rfoot -5.65211 2.6175
rtoes 48.1067
lfemur -36.9928 13.9114 -17.9029
ltibia 63.464
lfoot -12.7126 3.03299
ltoes 0.102176
